<?xml version="1.0" encoding="UTF-8"?>
<svg width="35px" height="36px" viewBox="0 0 35 36" version="1.1" xmlns="http://www.w3.org/2000/svg" xmlns:xlink="http://www.w3.org/1999/xlink">
    <!-- Generator: sketchtool 50.2 (55047) - http://www.bohemiancoding.com/sketch -->
    <title>3859F301-50B6-4D0E-83A3-DAA89DF510AB</title>
    <desc>Created with sketchtool.</desc>
    <defs></defs>
    <g id="icon" stroke="none" stroke-width="1" fill="none" fill-rule="evenodd">
        <g id="btn_size_up" fill="#CFCFCF">
            <path d="M19,17 L25,17 C25.5522847,17 26,17.4477153 26,18 C26,18.5522847 25.5522847,19 25,19 L19,19 L19,25 C19,25.5522847 18.5522847,26 18,26 C17.4477153,26 17,25.5522847 17,25 L17,19 L11,19 C10.4477153,19 10,18.5522847 10,18 C10,17.4477153 10.4477153,17 11,17 L17,17 L17,11 C17,10.4477153 17.4477153,10 18,10 C18.5522847,10 19,10.4477153 19,11 L19,17 Z" id="Combined-Shape"></path>
        </g>
    </g>
</svg>