<svg xmlns="http://www.w3.org/2000/svg" width="48" height="48" viewBox="0 0 48 48">
    <g fill="none" fill-rule="evenodd" transform="translate(12 12)">
        <rect width="22" height="22" x="1" y="1" stroke="#FFF" stroke-width="2" rx="4"/>
        <path fill="#FFF" d="M12 17c-2.532 0-4.858-1.232-6.979-3.695a2 2 0 0 1 0-2.61C7.141 8.232 9.468 7 12 7s4.858 1.232 6.979 3.695a2 2 0 0 1 0 2.61C16.859 15.768 14.532 17 12 17zm0-1a4 4 0 1 0 0-8 4 4 0 0 0 0 8z"/>
        <circle cx="13" cy="11" r="1" fill="#FFF"/>
    </g>
</svg>
