<svg xmlns="http://www.w3.org/2000/svg" width="30" height="30" viewBox="0 0 30 30">
    <g fill="#CFCFCF" fill-rule="evenodd">
        <path d="M13 7a2 2 0 0 0-2-2H7a2 2 0 0 0-2 2v2h20a2 2 0 0 0-2-2H13zM5.331 11H24.67a2 2 0 0 1 1.977 2.304l-1.385 9A2 2 0 0 1 23.284 24H6.716a2 2 0 0 1-1.977-1.696l-1.385-9A2 2 0 0 1 5.331 11zm6.207 11.088l1.908-.438a.5.5 0 0 0 .241-.84l-1.47-1.47a.5.5 0 0 0-.84.241l-.438 1.908a.5.5 0 0 0 .599.6zm7.361-8.674a1 1 0 0 0-1.414 0L12.89 18.01a.5.5 0 0 0 0 .708l1.591 1.59a.5.5 0 0 0 .707 0l4.596-4.596a1 1 0 0 0 0-1.414l-.884-.884z"/>
    </g>
</svg>
