<svg xmlns="http://www.w3.org/2000/svg" width="30" height="30" viewBox="0 0 30 30">
    <g fill="none" fill-rule="evenodd" stroke="#CFCFCF" stroke-width="2">
        <path fill="#CFCFCF" d="M15.673 11.013l-1.596 2.763a2 2 0 0 1-1.732 1h-3.19a2 2 0 0 1-1.732-1l-1.596-2.763a2 2 0 0 1 0-2L7.423 6.25a2 2 0 0 1 1.732-1h3.19a2 2 0 0 1 1.732 1l1.596 2.763a2 2 0 0 1 0 2z"/>
        <path d="M15.673 21.013l-1.596 2.763a2 2 0 0 1-1.732 1h-3.19a2 2 0 0 1-1.732-1l-1.596-2.763a2 2 0 0 1 0-2l1.596-2.763a2 2 0 0 1 1.732-1h3.19a2 2 0 0 1 1.732 1l1.596 2.763a2 2 0 0 1 0 2zM24.673 16.013l-1.596 2.763a2 2 0 0 1-1.732 1h-3.19a2 2 0 0 1-1.732-1l-1.596-2.763a2 2 0 0 1 0-2l1.596-2.763a2 2 0 0 1 1.732-1h3.19a2 2 0 0 1 1.732 1l1.596 2.763a2 2 0 0 1 0 2z"/>
    </g>
</svg>
