<svg xmlns="http://www.w3.org/2000/svg" width="30" height="30" viewBox="0 0 30 30">
    <g fill="#CFCFCF" fill-rule="evenodd" transform="translate(3 3)">
        <circle cx="12" cy="12" r="6"/>
        <rect width="2" height="5" x="11" rx="1"/>
        <rect width="2" height="5" x="11" y="19" rx="1"/>
        <rect width="5" height="2" x="19" y="11" rx="1"/>
        <rect width="5" height="2" x="1.975" y="3.475" rx="1" transform="rotate(45 4.475 4.475)"/>
        <rect width="5" height="2" x="1.975" y="19" rx="1" transform="scale(1 -1) rotate(45 52.76 0)"/>
        <rect width="5" height="2" x="16.975" y="3.475" rx="1" transform="scale(-1 1) rotate(45 0 -42.542)"/>
        <rect width="5" height="2" x="16.975" y="19" rx="1" transform="rotate(-135 19.475 20)"/>
        <rect width="5" height="2" y="11" rx="1"/>
    </g>
</svg>
