<svg xmlns="http://www.w3.org/2000/svg" width="30" height="30" viewBox="0 0 30 30">
    <g fill="none" fill-rule="evenodd">
        <path stroke="#FFF" stroke-width="2" d="M15.492 4.009a1 1 0 0 0-.984 0l-9 5.08a1 1 0 0 0-.508.87v10.082a1 1 0 0 0 .508.87l9 5.08a1 1 0 0 0 .984 0l9-5.08a1 1 0 0 0 .508-.87V9.959a1 1 0 0 0-.508-.87l-9-5.08z"/>
        <g fill="#FFF" transform="translate(9 9)">
            <rect width="2" height="4" x="5" rx="1"/>
            <rect width="2" height="4" x="5" y="8" rx="1"/>
            <circle cx="6" cy="6" r="1"/>
            <rect width="4" height="2" x="8" y="5" rx="1"/>
            <rect width="4" height="2" y="5" rx="1"/>
        </g>
    </g>
</svg>
