<svg xmlns="http://www.w3.org/2000/svg" width="30" height="30" viewBox="0 0 30 30">
    <g fill="#CFCFCF" fill-rule="evenodd">
        <path d="M13 8a2 2 0 0 0-2-2H7a2 2 0 0 0-2 2v2h20a2 2 0 0 0-2-2H13zM20.13 17.206a.498.498 0 0 1-.365.115l-1.532 1.286a.5.5 0 1 0 .643.766l.365-.306a3.744 3.744 0 0 1-3.75 3.683 3.749 3.749 0 0 1-3.326-2.017.75.75 0 0 0-1.33.694 5.249 5.249 0 0 0 8.986.543 5.225 5.225 0 0 0 .914-2.714zm-8.37 1.01a3.75 3.75 0 0 1 6.833-1.837.75.75 0 1 0 1.237-.849 5.251 5.251 0 0 0-9.527 2.226l-.187-.323a.5.5 0 1 0-.866.5l1 1.732a.498.498 0 0 0 .683.183l1.732-1a.5.5 0 0 0-.5-.866l-.404.234zM5.332 12H24.67a2 2 0 0 1 1.977 2.304l-1.385 9A2 2 0 0 1 23.284 25H6.716a2 2 0 0 1-1.977-1.696l-1.385-9A2 2 0 0 1 5.331 12z"/>
    </g>
</svg>
