<svg xmlns="http://www.w3.org/2000/svg" width="30" height="30" viewBox="0 0 30 30">
    <g fill="none" fill-rule="evenodd">
        <g stroke="#979797" stroke-width="2" transform="translate(4 4)">
            <path d="M2 0h18a2 2 0 0 1 2 2v18a2 2 0 0 1-2 2H2a2 2 0 0 1-2-2V2a2 2 0 0 1 2-2z"/>
            <circle cx="11" cy="11" r="4"/>
        </g>
        <g fill="#979797" transform="translate(6 6)">
            <path d="M9 13a4 4 0 1 1 0-8v8z"/>
            <rect width="2" height="3" x="8" rx="1"/>
            <rect width="2" height="3" x="8" y="15" rx="1"/>
            <rect width="3" height="2" y="8" rx="1"/>
            <rect width="3" height="2" x="1.968" y="2.768" rx="1" transform="rotate(45 3.468 3.768)"/>
            <rect width="3" height="2" x="2" y="14" rx="1" transform="scale(1 -1) rotate(45 39.713 0)"/>
            <rect width="3" height="2" x="13.268" y="2.768" rx="1" transform="scale(-1 1) rotate(45 0 -31.885)"/>
            <rect width="3" height="2" x="13" y="14" rx="1" transform="rotate(-135 14.5 15)"/>
            <rect width="3" height="2" x="15" y="8" rx="1"/>
        </g>
    </g>
</svg>
