<svg xmlns="http://www.w3.org/2000/svg" width="30" height="30" viewBox="0 0 30 30">
    <g fill="#CFCFCF" fill-rule="evenodd" transform="translate(3 3)">
        <rect width="2" height="20" x="11" y="2" rx="1"/>
        <path d="M11.95 2.828l2.828 2.829a1 1 0 0 0 1.414-1.414L12.657.707a.997.997 0 0 0-1.414 0L7.707 4.243a1 1 0 1 0 1.414 1.414l2.829-2.829zM11.95 21.071l2.828-2.828a1 1 0 1 1 1.414 1.414l-3.535 3.535a.997.997 0 0 1-1.414 0l-3.536-3.535a1 1 0 0 1 1.414-1.414l2.829 2.828zM2.828 11.95l2.829 2.828a1 1 0 1 1-1.414 1.414L.707 12.657a.997.997 0 0 1 0-1.414l3.536-3.536a1 1 0 0 1 1.414 1.414L2.828 11.95zM21.071 11.95l-2.828 2.828a1 1 0 0 0 1.414 1.414l3.535-3.535a.997.997 0 0 0 0-1.414l-3.535-3.536a1 1 0 1 0-1.414 1.414l2.828 2.829z"/>
        <rect width="2" height="20" x="11" y="2" rx="1" transform="rotate(90 12 12)"/>
    </g>
</svg>
