<svg xmlns="http://www.w3.org/2000/svg" width="30" height="30" viewBox="0 0 30 30">
    <g fill="#CFCFCF" fill-rule="evenodd">
        <path d="M5 11h19.338a2 2 0 0 1 1.977 2.304l-1.385 9A2 2 0 0 1 22.953 24H6.385a2 2 0 0 1-1.977-1.696l-1.384-9A2 2 0 0 1 5 11zm10.925 1.418a2.497 2.497 0 0 0-2.512 0l-2.497 1.453a2.497 2.497 0 0 0-1.24 2.158v2.942c0 .889.472 1.71 1.24 2.158l2.497 1.453a2.497 2.497 0 0 0 2.512 0l2.497-1.453a2.497 2.497 0 0 0 1.24-2.158v-2.942c0-.889-.472-1.71-1.24-2.158l-2.497-1.453z"/>
        <path d="M14.475 17.528l-.722-.722a.51.51 0 1 0-.723.722l1.084 1.084a.51.51 0 0 0 .722 0l1.795-1.795a.51.51 0 1 0-.722-.722l-1.434 1.433zm.705-3.934l2.5 1.486a1 1 0 0 1 .49.86v3.02a1 1 0 0 1-.49.86l-2.5 1.486a1 1 0 0 1-1.022 0l-2.5-1.486a1 1 0 0 1-.489-.86v-3.02a1 1 0 0 1 .49-.86l2.5-1.486a1 1 0 0 1 1.02 0zM12.67 7a2 2 0 0 0-2-2h-4a2 2 0 0 0-2 2v2h20a2 2 0 0 0-2-2h-10z"/>
    </g>
</svg>
