<?xml version="1.0" encoding="UTF-8"?>
<svg width="30px" height="30px" viewBox="0 0 30 30" version="1.1" xmlns="http://www.w3.org/2000/svg" xmlns:xlink="http://www.w3.org/1999/xlink">
    <!-- Generator: sketchtool 50.2 (55047) - http://www.bohemiancoding.com/sketch -->
    <title>DBBE57FB-77C8-47FA-B7A8-5FFC32C1FA15</title>
    <desc>Created with sketchtool.</desc>
    <defs></defs>
    <g id="icon" stroke="none" stroke-width="1" fill="none" fill-rule="evenodd">
        <g id="img_over_20_expand_display">
            <g transform="translate(3.000000, 3.000000)">
                <rect id="Rectangle-Copy-2" stroke="#FFFFFF" stroke-width="2" x="1" y="1" width="22" height="22" rx="2"></rect>
                <rect id="Rectangle-5" fill="#FFFFFF" x="11" y="4" width="2" height="6" rx="1"></rect>
                <rect id="Rectangle-5-Copy" fill="#FFFFFF" x="11" y="14" width="2" height="6" rx="1"></rect>
                <rect id="Rectangle-34" fill="#FFFFFF" x="14" y="11" width="6" height="2" rx="1"></rect>
                <rect id="Rectangle-34-Copy" fill="#FFFFFF" x="4" y="11" width="6" height="2" rx="1"></rect>
            </g>
            <path d="M14.5355339,9.03553391 L14.5355339,11.0355339 C14.5355339,11.5878187 14.0878187,12.0355339 13.5355339,12.0355339 C12.9832492,12.0355339 12.5355339,11.5878187 12.5355339,11.0355339 L12.5355339,8.03553391 C12.5355339,7.48324916 12.9832492,7.03553391 13.5355339,7.03553391 L16.5355339,7.03553391 C17.0878187,7.03553391 17.5355339,7.48324916 17.5355339,8.03553391 C17.5355339,8.58781866 17.0878187,9.03553391 16.5355339,9.03553391 L14.5355339,9.03553391 Z" id="Combined-Shape" fill="#FFFFFF" transform="translate(15.035534, 9.535534) rotate(45.000000) translate(-15.035534, -9.535534) "></path>
            <path d="M14.5355339,20.0355339 L14.5355339,22.0355339 C14.5355339,22.5878187 14.0878187,23.0355339 13.5355339,23.0355339 C12.9832492,23.0355339 12.5355339,22.5878187 12.5355339,22.0355339 L12.5355339,19.0355339 C12.5355339,18.4832492 12.9832492,18.0355339 13.5355339,18.0355339 L16.5355339,18.0355339 C17.0878187,18.0355339 17.5355339,18.4832492 17.5355339,19.0355339 C17.5355339,19.5878187 17.0878187,20.0355339 16.5355339,20.0355339 L14.5355339,20.0355339 Z" id="Combined-Shape" fill="#FFFFFF" transform="translate(15.035534, 20.535534) scale(1, -1) rotate(45.000000) translate(-15.035534, -20.535534) "></path>
            <path d="M9.03553391,14.5355339 L9.03553391,16.5355339 C9.03553391,17.0878187 8.58781866,17.5355339 8.03553391,17.5355339 C7.48324916,17.5355339 7.03553391,17.0878187 7.03553391,16.5355339 L7.03553391,13.5355339 C7.03553391,12.9832492 7.48324916,12.5355339 8.03553391,12.5355339 L11.0355339,12.5355339 C11.5878187,12.5355339 12.0355339,12.9832492 12.0355339,13.5355339 C12.0355339,14.0878187 11.5878187,14.5355339 11.0355339,14.5355339 L9.03553391,14.5355339 Z" id="Combined-Shape-Copy" fill="#FFFFFF" transform="translate(9.535534, 15.035534) rotate(-45.000000) translate(-9.535534, -15.035534) "></path>
            <path d="M20.0355339,14.5355339 L20.0355339,16.5355339 C20.0355339,17.0878187 19.5878187,17.5355339 19.0355339,17.5355339 C18.4832492,17.5355339 18.0355339,17.0878187 18.0355339,16.5355339 L18.0355339,13.5355339 C18.0355339,12.9832492 18.4832492,12.5355339 19.0355339,12.5355339 L22.0355339,12.5355339 C22.5878187,12.5355339 23.0355339,12.9832492 23.0355339,13.5355339 C23.0355339,14.0878187 22.5878187,14.5355339 22.0355339,14.5355339 L20.0355339,14.5355339 Z" id="Combined-Shape-Copy-2" fill="#FFFFFF" transform="translate(20.535534, 15.035534) scale(-1, 1) rotate(-45.000000) translate(-20.535534, -15.035534) "></path>
        </g>
    </g>
</svg>