<svg xmlns="http://www.w3.org/2000/svg" xmlns:xlink="http://www.w3.org/1999/xlink" width="214" height="40" viewBox="0 0 214 40">
    <defs>
        <path id="a" d="M.082.08h15.92v15.914H.082V.081z"/>
        <path id="c" d="M0 15.952v.042h77.535V.081H0v15.871h9.754V.122H0v15.83z"/>
        <path id="d" d="M4.847 3.111C3.961 1.106 2.738.065 0 .125l6.218 15.81 3.536.017-4.907-12.84z"/>
    </defs>
    <g fill="none" fill-rule="evenodd">
        <g transform="translate(71.533 12.03)">
            <mask id="b" fill="#fff">
                <use xlink:href="#a"/>
            </mask>
            <path fill="#FFF" d="M14.628 4.433L10.242.08c-.367.468-1.844 2.714-.326 4.27L12.18 6.64c.778.797.609 1.795-.169 2.594l-2.869 2.864c-.529.53-1.475.76-2.25 0L4.037 9.141c-.777-.799-.704-1.786.074-2.584l1.837-1.826c1.73-1.599.381-4.182.015-4.65L1.438 4.55c-1.831 1.877-1.796 4.817.036 6.695l3.255 3.339a4.624 4.624 0 0 0 3.322 1.41c1.203 0 2.406-.47 3.322-1.41l3.256-3.339c1.83-1.878 1.83-4.936 0-6.813" mask="url(#b)"/>
        </g>
        <path fill="#FFF" d="M43.097 22.382c0 1.814-1.1 2.343-2.346 2.343h-4.964c-.895 0-2.086-.794-2.087-2.382v-6.738c.001-1.864-1.579-3.481-3.229-3.481h-.093v10.635c0 2.914 2.47 5.253 5.411 5.253h5.224c2.941 0 5.407-2.339 5.407-5.253v-7.24L43.097 12.2v10.18zM54.29 17.754c0-1.814 1.099-2.344 2.345-2.344h4.964c.896 0 2.087.795 2.088 2.383v6.737c-.001 1.865 1.578 3.482 3.228 3.482h.093V17.376c0-2.914-2.47-5.252-5.41-5.252h-5.225c-2.94 0-5.407 2.338-5.407 5.252v7.241l3.323 3.318V17.754zM25.622 12.18h-3.573l-2.991 8.154 1.841 5.095z"/>
        <g transform="translate(10 12.03)">
            <use fill="#FFF" xlink:href="#d"/>
        </g>
    </g>
</svg>
