<svg xmlns="http://www.w3.org/2000/svg" width="214" height="40" viewBox="0 0 214 40">
    <g fill="none" fill-rule="evenodd">
        <g fill="#FFF">
            <path d="M45 12v14h10V15.832h-7.313V12H45zm2.687 11.303h4.625v-4.737h-4.625v4.737zM70 16v10h10v-2.656h-7.313v-.89H80V16H70zm2.687 3.767h4.626v-1.079h-4.626v1.079zM102 16v10h10v-2.656h-7.313v-.89H112V16h-10zm2.687 3.767h4.626v-1.079h-4.626v1.079zM61 26V15.831h2.998V26H61zm0-11.943V12h3v2.057h-3zM118 16v10h2.686v-7.312h7.31L128 16zM93.313 16v7.344h-.969V16h-2.688v7.344h-.969V16H86v10h10V16z"/>
        </g>
        <g transform="translate(5 5)">
            <path stroke="#FFF" stroke-width="3" d="M14.025.09l11 6.567A2 2 0 0 1 26 8.375v13.25a2 2 0 0 1-.975 1.718l-11 6.566a2 2 0 0 1-2.05 0l-11-6.566A2 2 0 0 1 0 21.625V8.375a2 2 0 0 1 .975-1.718l11-6.566a2 2 0 0 1 2.05 0z"/>
            <path fill="#FFF" d="M13 19c-2.626 0-5.049-1.006-7.267-3.019a2 2 0 0 1 0-2.962C7.952 11.006 10.373 10 13 10c2.626 0 5.049 1.006 7.267 3.019a2 2 0 0 1 0 2.962C18.048 17.994 15.627 19 13 19zm0-.9c1.924 0 3.483-1.612 3.483-3.6s-1.56-3.6-3.483-3.6c-1.924 0-3.483 1.612-3.483 3.6s1.56 3.6 3.483 3.6z"/>
            <circle cx="14" cy="13" r="1" fill="#FFF"/>
        </g>
    </g>
</svg>
